{"title":"Paramparca S01E23 Gr Subs (Ragismenes Kardies)","uid":12867399,"size":319994882,"categoryP":"video","categoryS":"tv_shows","magnet":"?xt=urn:btih:6e98874bdd2a3dcaf215bebd7369479fcddefe81&amp;dn=Paramparca+S01E23+Gr+Subs+%28Ragismenes+Kardies%29&amp;tr=udp%3A%2F%2Ftracker.leechers-paradise.org%3A6969&amp;tr=udp%3A%2F%2Fzer0day.ch%3A1337&amp;tr=udp%3A%2F%2Fopen.demonii.com%3A1337&amp;tr=udp%3A%2F%2Ftracker.coppersurfer.tk%3A6969&amp;tr=udp%3A%2F%2Fexodus.desync.com%3A6969","seeders":0,"leechers":1,"uploader":"Aris2015","files":1,"time":1448827257,"description":"σημειωση: η ποιότητα ειναι ιδιο με αυτο εδω  \nhttps://thepiratebay.vg/torrent/12788492/Paramparca_S01E23-24-25_Gr_Subs_(Ragismenes_Kardies)\r\n\r\nGeneral \r\nComplete name : Paramparca S01E23 Gr Subs.avi \r\nFormat : AVI \r\nFormat/Info : Audio Video Interleave \r\nFile size : 305 MiB \r\nDuration : 45mn 15s \r\nOverall bit rate : 943 Kbps \r\nWriting application : Lavf55.37.100 \r\n\r\nVideo \r\nID : 0 \r\nFormat : AVC \r\nFormat/Info : Advanced Video Codec \r\nFormat profile :    \r\nFormat settings, CABAC : Yes \r\nFormat settings, ReFrames : 1 frame \r\nCodec ID : H264 \r\nDuration : 45mn 15s \r\nBit rate : 803 Kbps \r\nWidth : 1 024 pixels \r\nHeight : 576 pixels \r\nDisplay aspect ratio : 16:9 \r\nFrame rate : 23.976 fps \r\nColor space : YUV \r\nChroma subsampling : 4:2:0 \r\nBit depth : 8 bits \r\nScan type : Progressive \r\nBits/(Pixel*Frame) : 0.057 \r\nStream size : 260 MiB (85%) \r\n\r\nAudio \r\nID : 1 \r\nFormat : MPEG Audio \r\nFormat version : Version 1 \r\nFormat profile : Layer 3 \r\nMode : Joint stereo \r\nMode extension : MS Stereo \r\nCodec ID : 55 \r\nCodec ID/Hint : MP3 \r\nDuration : 45mn 15s \r\nBit rate mode : Constant \r\nBit rate : 128 Kbps \r\nChannel(s) : 2 channels \r\nSampling rate : 44.1 KHz \r\nCompression mode : Lossy \r\nStream size : 41.4 MiB (14%) \r\nAlignment : Aligned on interleaves \r\nInterleave, duration : 26 ms (0.63 video frame) \r\nWriting library : LAME3.98.2","torrent":{"xt":"urn:btih:6e98874bdd2a3dcaf215bebd7369479fcddefe81","amp;dn":"Paramparca+S01E23+Gr+Subs+%28Ragismenes+Kardies%29","amp;tr":["udp%3A%2F%2Ftracker.leechers-paradise.org%3A6969","udp%3A%2F%2Fzer0day.ch%3A1337","udp%3A%2F%2Fopen.demonii.com%3A1337","udp%3A%2F%2Ftracker.coppersurfer.tk%3A6969","udp%3A%2F%2Fexodus.desync.com%3A6969"],"infoHash":"6e98874bdd2a3dcaf215bebd7369479fcddefe81","infoHashBuffer":{"type":"Buffer","data":[110,152,135,75,221,42,61,202,242,21,190,189,115,105,71,159,205,222,254,129]},"announce":[],"urlList":[]}}